# MagicaVoxel @ Ephtracy

# group
o 

# material
mtllib extension.mtl
usemtl palette

# normals
vn -1 0 0
vn 1 0 0
vn 0 0 1
vn 0 0 -1
vn 0 -1 0
vn 0 1 0

# texcoords
vt 0.279297 0.5
vt 0.517578 0.5
vt 0.521484 0.5
vt 0.572266 0.5
vt 0.603516 0.5
vt 0.716797 0.5
vt 0.720703 0.5
vt 0.736328 0.5
vt 0.779297 0.5
vt 0.935547 0.5

# verts
v -12.7 0 12.7
v -12.7 0 9.6
v -12.7 0.1 12.7
v -12.7 0.1 9.6
v -12.7 0.2 12.7
v -12.7 0.2 9.6
v -6.8 0.3 12.5
v -6.8 0.3 12.4
v -6.8 0.3 11.5
v -6.8 0.3 11.4
v -6.8 0.3 10.9
v -6.8 0.3 10.8
v -6.8 0.3 9.9
v -6.8 0.3 9.8
v -6.8 1.1 12.5
v -6.8 1.1 12.4
v -6.8 1.1 11.5
v -6.8 1.1 11.4
v -6.8 1.1 10.9
v -6.8 1.1 10.8
v -6.8 1.1 9.9
v -6.8 1.1 9.8
v -6.7 0.5 12.6
v -6.7 0.5 12.5
v -6.7 0.5 12.4
v -6.7 0.5 11.5
v -6.7 0.5 11.4
v -6.7 0.5 11.3
v -6.7 0.5 11
v -6.7 0.5 10.9
v -6.7 0.5 10.8
v -6.7 0.5 9.9
v -6.7 0.5 9.8
v -6.7 0.5 9.7
v -6.7 0.6 12.7
v -6.7 0.6 12.6
v -6.7 0.6 12.5
v -6.7 0.6 12.4
v -6.7 0.6 11.5
v -6.7 0.6 11.4
v -6.7 0.6 11.3
v -6.7 0.6 11.2
v -6.7 0.6 11.1
v -6.7 0.6 11
v -6.7 0.6 10.9
v -6.7 0.6 10.8
v -6.7 0.6 9.9
v -6.7 0.6 9.8
v -6.7 0.6 9.7
v -6.7 0.6 9.6
v -6.7 1.1 12.7
v -6.7 1.1 12.6
v -6.7 1.1 12.5
v -6.7 1.1 12.4
v -6.7 1.1 11.5
v -6.7 1.1 11.4
v -6.7 1.1 11.3
v -6.7 1.1 11.2
v -6.7 1.1 11.1
v -6.7 1.1 11
v -6.7 1.1 10.9
v -6.7 1.1 10.8
v -6.7 1.1 9.9
v -6.7 1.1 9.8
v -6.7 1.1 9.7
v -6.7 1.1 9.6
v -6.7 1.2 12.6
v -6.7 1.2 11.3
v -6.7 1.2 11
v -6.7 1.2 9.7
v -3 5.6 11.4
v -3 5.6 11.3
v -3 5.6 11.2
v -3 5.6 11.1
v -3 5.7 11.3
v -3 5.7 11.2
v -3 5.9 11.4
v -3 5.9 11.1
v -0.7 0.1 12.7
v -0.7 0.1 9.6
v -0.7 0.2 12.7
v -0.7 0.2 9.6
v -0.6 2.6 11.6
v -0.6 2.6 11.3
v -0.6 3.3 11.6
v -0.6 3.3 11.3
v -0.5 3.7 11.4
v -0.5 3.7 11.1
v -0.5 3.9 11.4
v -0.5 3.9 11.1
v -0.4 0.2 11.4
v -0.4 0.2 11.1
v -0.4 2.6 11.4
v -0.4 2.6 11.3
v -0.4 3.3 11.3
v -0.4 3.3 11.2
v -0.4 3.3 11.1
v -0.4 3.7 11.3
v -0.4 3.7 11.2
v -0.4 3.9 11.3
v -0.4 3.9 11.2
v -0.4 5.6 11.3
v -0.4 5.6 11.2
v -0.4 5.7 11.3
v -0.4 5.7 11.2
v -0.3 2.4 11.1
v -0.3 2.4 10.9
v -0.3 3.3 11.4
v -0.3 3.3 11.3
v -0.3 3.3 11.2
v -0.3 3.3 11.1
v -0.3 3.4 11.1
v -0.3 3.4 10.9
v -0.3 3.7 11.4
v -0.3 3.7 11.3
v -0.3 3.7 11.2
v -0.3 3.7 11.1
v -0.3 3.9 11.4
v -0.3 3.9 11.3
v -0.3 3.9 11.2
v -0.3 3.9 11.1
v -0.3 5.6 11.4
v -0.3 5.6 11.3
v -0.3 5.6 11.2
v -0.3 5.6 11.1
v 1.3 0.2 12.7
v 1.3 0.2 9.6
v 1.3 0.3 12.7
v 1.3 0.3 9.6
v 12.5 0.2 12.7
v 12.5 0.2 9.6
v 12.5 0.3 12.7
v 12.5 0.3 9.6
v -6.7 0.3 12.5
v -6.7 0.3 12.4
v -6.7 0.3 11.5
v -6.7 0.3 11.4
v -6.7 0.3 10.9
v -6.7 0.3 10.8
v -6.7 0.3 9.9
v -6.7 0.3 9.8
v -6.7 0.5 12.5
v -6.7 0.5 12.4
v -6.7 0.5 11.5
v -6.7 0.5 11.4
v -6.7 0.5 10.9
v -6.7 0.5 10.8
v -6.7 0.5 9.9
v -6.7 0.5 9.8
v -6.7 0.6 12.5
v -6.7 0.6 12.4
v -6.7 0.6 11.5
v -6.7 0.6 11.4
v -6.7 0.6 10.9
v -6.7 0.6 10.8
v -6.7 0.6 9.9
v -6.7 0.6 9.8
v -6.7 1.1 12.5
v -6.7 1.1 12.4
v -6.7 1.1 11.5
v -6.7 1.1 11.4
v -6.7 1.1 10.9
v -6.7 1.1 10.8
v -6.7 1.1 9.9
v -6.7 1.1 9.8
v -6.6 0.5 12.6
v -6.6 0.5 11.3
v -6.6 0.5 11
v -6.6 0.5 9.7
v -6.6 0.6 12.7
v -6.6 0.6 12.6
v -6.6 0.6 11.3
v -6.6 0.6 11.2
v -6.6 0.6 11.1
v -6.6 0.6 11
v -6.6 0.6 9.7
v -6.6 0.6 9.6
v -6.6 1.1 12.7
v -6.6 1.1 12.6
v -6.6 1.1 11.3
v -6.6 1.1 11.2
v -6.6 1.1 11.1
v -6.6 1.1 11
v -6.6 1.1 9.7
v -6.6 1.1 9.6
v -6.6 1.2 12.6
v -6.6 1.2 11.3
v -6.6 1.2 11
v -6.6 1.2 9.7
v -4.7 0.1 12.7
v -4.7 0.1 9.6
v -4.7 0.2 12.7
v -4.7 0.2 9.6
v -0.3 5.8 11.4
v -0.3 5.8 11.1
v -0.3 5.9 11.4
v -0.3 5.9 11.1
v -0.2 3.3 11.4
v -0.2 3.3 11.3
v -0.2 3.4 11.2
v -0.2 3.4 11.1
v -0.2 5.2 11.3
v -0.2 5.2 11.2
v -0.2 5.8 11.4
v -0.2 5.8 11.1
v -0.1 0.2 11.4
v -0.1 0.2 11.1
v -0.1 2.4 11.2
v -0.1 2.4 11.1
v -0.1 2.6 11.6
v -0.1 2.6 11.4
v -0.1 3.3 11.6
v -0.1 3.3 11.4
v -0.1 3.3 11.3
v -0.1 3.4 11.2
v -0.1 5.2 11.3
v -0.1 5.2 11.2
v 0 2.4 11.2
v 0 2.4 10.9
v 0 3.4 11.2
v 0 3.4 10.9
v 12.4 0.2 12.7
v 12.4 0.2 9.6
v 12.4 0.3 12.7
v 12.4 0.3 9.6
v 12.9 0 12.7
v 12.9 0 9.6
v 12.9 0.1 12.7
v 12.9 0.1 9.6
v 12.9 0.2 12.7
v 12.9 0.2 9.6
v 12.9 0.3 12.7
v 12.9 0.3 9.6
v -12.7 0 12.7
v -12.7 0.1 12.7
v -12.7 0.2 12.7
v -6.7 0.6 12.7
v -6.7 1.1 12.7
v -6.6 0.1 12.7
v -6.6 0.2 12.7
v -6.6 0.6 12.7
v -6.6 1.1 12.7
v -4.7 0 12.7
v -4.7 0.1 12.7
v -4.7 0.2 12.7
v -4.5 0 12.7
v -4.5 0.1 12.7
v -0.9 0 12.7
v -0.9 0.1 12.7
v -0.7 0 12.7
v -0.7 0.1 12.7
v -0.7 0.2 12.7
v 1.3 0.2 12.7
v 1.3 0.3 12.7
v 12.4 0.2 12.7
v 12.4 0.3 12.7
v 12.5 0.2 12.7
v 12.5 0.3 12.7
v 12.9 0 12.7
v 12.9 0.1 12.7
v 12.9 0.2 12.7
v 12.9 0.3 12.7
v -6.7 0.5 12.6
v -6.7 0.6 12.6
v -6.7 1.1 12.6
v -6.7 1.2 12.6
v -6.6 0.5 12.6
v -6.6 0.6 12.6
v -6.6 1.1 12.6
v -6.6 1.2 12.6
v -6.8 0.3 12.5
v -6.8 1.1 12.5
v -6.7 0.3 12.5
v -6.7 0.5 12.5
v -6.7 0.6 12.5
v -6.7 1.1 12.5
v -0.6 2.6 11.6
v -0.6 3.3 11.6
v -0.1 2.6 11.6
v -0.1 3.3 11.6
v -6.8 0.3 11.5
v -6.8 1.1 11.5
v -6.7 0.3 11.5
v -6.7 0.5 11.5
v -6.7 0.6 11.5
v -6.7 1.1 11.5
v -3 5.6 11.4
v -3 5.9 11.4
v -0.5 3.7 11.4
v -0.5 3.9 11.4
v -0.4 0.2 11.4
v -0.4 2.6 11.4
v -0.3 3.3 11.4
v -0.3 3.7 11.4
v -0.3 3.9 11.4
v -0.3 5.6 11.4
v -0.3 5.8 11.4
v -0.3 5.9 11.4
v -0.2 3.3 11.4
v -0.2 5.8 11.4
v -0.1 0.2 11.4
v -0.1 2.6 11.4
v -6.7 0.6 11.3
v -6.7 1.1 11.3
v -6.6 0.6 11.3
v -6.6 1.1 11.3
v -0.4 3.3 11.3
v -0.4 3.7 11.3
v -0.4 3.9 11.3
v -0.4 5.6 11.3
v -0.3 3.3 11.3
v -0.3 3.7 11.3
v -0.3 3.9 11.3
v -0.3 5.6 11.3
v -0.2 3.3 11.3
v -0.2 5.2 11.3
v -0.1 3.3 11.3
v -0.1 5.2 11.3
v -3 5.6 11.2
v -3 5.7 11.2
v -2.9 5.7 11.2
v -0.4 5.6 11.2
v -0.4 5.7 11.2
v -0.1 2.4 11.2
v -0.1 3.4 11.2
v 0 2.4 11.2
v 0 3.4 11.2
v -6.7 0.6 11.1
v -6.7 1.1 11.1
v -6.6 0.6 11.1
v -6.6 1.1 11.1
v -6.7 0.5 11
v -6.7 0.6 11
v -6.7 1.1 11
v -6.7 1.2 11
v -6.6 0.5 11
v -6.6 0.6 11
v -6.6 1.1 11
v -6.6 1.2 11
v -6.8 0.3 10.9
v -6.8 1.1 10.9
v -6.7 0.3 10.9
v -6.7 0.5 10.9
v -6.7 0.6 10.9
v -6.7 1.1 10.9
v -6.8 0.3 9.9
v -6.8 1.1 9.9
v -6.7 0.3 9.9
v -6.7 0.5 9.9
v -6.7 0.6 9.9
v -6.7 1.1 9.9
v -6.7 0.6 9.7
v -6.7 1.1 9.7
v -6.6 0.6 9.7
v -6.6 1.1 9.7
v -6.7 0.6 12.6
v -6.7 1.1 12.6
v -6.6 0.6 12.6
v -6.6 1.1 12.6
v -6.8 0.3 12.4
v -6.8 1.1 12.4
v -6.7 0.3 12.4
v -6.7 0.5 12.4
v -6.7 0.6 12.4
v -6.7 1.1 12.4
v -6.8 0.3 11.4
v -6.8 1.1 11.4
v -6.7 0.3 11.4
v -6.7 0.5 11.4
v -6.7 0.6 11.4
v -6.7 1.1 11.4
v -6.7 0.5 11.3
v -6.7 0.6 11.3
v -6.7 1.1 11.3
v -6.7 1.2 11.3
v -6.6 0.5 11.3
v -6.6 0.6 11.3
v -6.6 1.1 11.3
v -6.6 1.2 11.3
v -3 5.6 11.3
v -3 5.7 11.3
v -2.9 5.7 11.3
v -0.6 2.6 11.3
v -0.6 3.3 11.3
v -0.4 2.6 11.3
v -0.4 3.3 11.3
v -0.4 5.6 11.3
v -0.4 5.7 11.3
v -6.7 0.6 11.2
v -6.7 1.1 11.2
v -6.6 0.6 11.2
v -6.6 1.1 11.2
v -0.4 3.3 11.2
v -0.4 3.7 11.2
v -0.4 3.9 11.2
v -0.4 5.6 11.2
v -0.3 3.3 11.2
v -0.3 3.7 11.2
v -0.3 3.9 11.2
v -0.3 5.6 11.2
v -0.2 3.4 11.2
v -0.2 5.2 11.2
v -0.1 3.4 11.2
v -0.1 5.2 11.2
v -3 5.6 11.1
v -3 5.9 11.1
v -0.5 3.7 11.1
v -0.5 3.9 11.1
v -0.4 0.2 11.1
v -0.4 3.3 11.1
v -0.3 2.4 11.1
v -0.3 3.3 11.1
v -0.3 3.4 11.1
v -0.3 3.7 11.1
v -0.3 3.9 11.1
v -0.3 5.6 11.1
v -0.3 5.8 11.1
v -0.3 5.9 11.1
v -0.2 3.4 11.1
v -0.2 5.8 11.1
v -0.1 0.2 11.1
v -0.1 2.4 11.1
v -6.7 0.6 11
v -6.7 1.1 11
v -6.6 0.6 11
v -6.6 1.1 11
v -0.3 2.4 10.9
v -0.3 3.4 10.9
v 0 2.4 10.9
v 0 3.4 10.9
v -6.8 0.3 10.8
v -6.8 1.1 10.8
v -6.7 0.3 10.8
v -6.7 0.5 10.8
v -6.7 0.6 10.8
v -6.7 1.1 10.8
v -6.8 0.3 9.8
v -6.8 1.1 9.8
v -6.7 0.3 9.8
v -6.7 0.5 9.8
v -6.7 0.6 9.8
v -6.7 1.1 9.8
v -6.7 0.5 9.7
v -6.7 0.6 9.7
v -6.7 1.1 9.7
v -6.7 1.2 9.7
v -6.6 0.5 9.7
v -6.6 0.6 9.7
v -6.6 1.1 9.7
v -6.6 1.2 9.7
v -12.7 0 9.6
v -12.7 0.1 9.6
v -12.7 0.2 9.6
v -6.7 0.6 9.6
v -6.7 1.1 9.6
v -6.6 0.1 9.6
v -6.6 0.2 9.6
v -6.6 0.6 9.6
v -6.6 1.1 9.6
v -4.7 0 9.6
v -4.7 0.1 9.6
v -4.7 0.2 9.6
v -4.5 0 9.6
v -4.5 0.1 9.6
v -0.9 0 9.6
v -0.9 0.1 9.6
v -0.7 0 9.6
v -0.7 0.1 9.6
v -0.7 0.2 9.6
v 1.3 0.2 9.6
v 1.3 0.3 9.6
v 12.4 0.2 9.6
v 12.4 0.3 9.6
v 12.5 0.2 9.6
v 12.5 0.3 9.6
v 12.9 0 9.6
v 12.9 0.1 9.6
v 12.9 0.2 9.6
v 12.9 0.3 9.6
v -12.7 0 12.7
v -4.7 0 12.7
v -4.5 0 12.7
v -0.9 0 12.7
v -0.7 0 12.7
v 12.9 0 12.7
v -12.7 0 9.6
v -4.7 0 9.6
v -4.5 0 9.6
v -0.9 0 9.6
v -0.7 0 9.6
v 12.9 0 9.6
v -6.8 0.3 12.5
v -6.7 0.3 12.5
v -6.8 0.3 12.4
v -6.7 0.3 12.4
v -6.8 0.3 11.5
v -6.7 0.3 11.5
v -6.8 0.3 11.4
v -6.7 0.3 11.4
v -6.8 0.3 10.9
v -6.7 0.3 10.9
v -6.8 0.3 10.8
v -6.7 0.3 10.8
v -6.8 0.3 9.9
v -6.7 0.3 9.9
v -6.8 0.3 9.8
v -6.7 0.3 9.8
v -6.7 0.5 12.6
v -6.6 0.5 12.6
v -6.7 0.5 12.5
v -6.7 0.5 12.4
v -6.7 0.5 11.5
v -6.7 0.5 11.4
v -6.7 0.5 11.3
v -6.6 0.5 11.3
v -6.7 0.5 11
v -6.6 0.5 11
v -6.7 0.5 10.9
v -6.7 0.5 10.8
v -6.7 0.5 9.9
v -6.7 0.5 9.8
v -6.7 0.5 9.7
v -6.6 0.5 9.7
v -6.7 0.6 12.7
v -6.6 0.6 12.7
v -6.7 0.6 12.6
v -6.6 0.6 12.6
v -6.7 0.6 11.3
v -6.6 0.6 11.3
v -6.7 0.6 11.2
v -6.6 0.6 11.2
v -6.7 0.6 11.1
v -6.6 0.6 11.1
v -6.7 0.6 11
v -6.6 0.6 11
v -6.7 0.6 9.7
v -6.6 0.6 9.7
v -6.7 0.6 9.6
v -6.6 0.6 9.6
v -6.7 1.1 12.6
v -6.6 1.1 12.6
v -6.7 1.1 12.5
v -6.7 1.1 12.4
v -6.7 1.1 11.5
v -6.7 1.1 11.4
v -6.7 1.1 11.3
v -6.6 1.1 11.3
v -6.7 1.1 11
v -6.6 1.1 11
v -6.7 1.1 10.9
v -6.7 1.1 10.8
v -6.7 1.1 9.9
v -6.7 1.1 9.8
v -6.7 1.1 9.7
v -6.6 1.1 9.7
v -0.1 2.4 11.2
v 0 2.4 11.2
v -0.3 2.4 11.1
v -0.1 2.4 11.1
v -0.3 2.4 10.9
v 0 2.4 10.9
v -0.6 2.6 11.6
v -0.1 2.6 11.6
v -0.4 2.6 11.4
v -0.1 2.6 11.4
v -0.6 2.6 11.3
v -0.4 2.6 11.3
v -0.5 3.7 11.4
v -0.3 3.7 11.4
v -0.4 3.7 11.3
v -0.3 3.7 11.3
v -0.4 3.7 11.2
v -0.3 3.7 11.2
v -0.5 3.7 11.1
v -0.3 3.7 11.1
v -3 5.6 11.4
v -0.3 5.6 11.4
v -3 5.6 11.3
v -0.4 5.6 11.3
v -0.3 5.6 11.3
v -3 5.6 11.2
v -0.4 5.6 11.2
v -0.3 5.6 11.2
v -3 5.6 11.1
v -0.3 5.6 11.1
v -3 5.7 11.3
v -2.9 5.7 11.3
v -0.4 5.7 11.3
v -3 5.7 11.2
v -2.9 5.7 11.2
v -0.4 5.7 11.2
v -4.7 0.1 12.7
v -4.5 0.1 12.7
v -0.9 0.1 12.7
v -0.7 0.1 12.7
v -4.7 0.1 9.6
v -4.5 0.1 9.6
v -0.9 0.1 9.6
v -0.7 0.1 9.6
v -12.7 0.2 12.7
v -6.6 0.2 12.7
v -4.7 0.2 12.7
v -0.7 0.2 12.7
v 1.3 0.2 12.7
v 12.4 0.2 12.7
v 12.5 0.2 12.7
v -0.4 0.2 11.4
v -0.1 0.2 11.4
v -0.4 0.2 11.1
v -0.1 0.2 11.1
v -12.7 0.2 9.6
v -6.6 0.2 9.6
v -4.7 0.2 9.6
v -0.7 0.2 9.6
v 1.3 0.2 9.6
v 12.4 0.2 9.6
v 12.5 0.2 9.6
v 1.3 0.3 12.7
v 12.4 0.3 12.7
v 12.5 0.3 12.7
v 12.9 0.3 12.7
v 1.3 0.3 9.6
v 12.4 0.3 9.6
v 12.5 0.3 9.6
v 12.9 0.3 9.6
v -6.7 0.6 12.6
v -6.6 0.6 12.6
v -6.7 0.6 12.5
v -6.7 0.6 12.4
v -6.7 0.6 11.5
v -6.7 0.6 11.4
v -6.7 0.6 11.3
v -6.6 0.6 11.3
v -6.7 0.6 11
v -6.6 0.6 11
v -6.7 0.6 10.9
v -6.7 0.6 10.8
v -6.7 0.6 9.9
v -6.7 0.6 9.8
v -6.7 0.6 9.7
v -6.6 0.6 9.7
v -6.7 1.1 12.7
v -6.6 1.1 12.7
v -6.7 1.1 12.6
v -6.6 1.1 12.6
v -6.8 1.1 12.5
v -6.7 1.1 12.5
v -6.8 1.1 12.4
v -6.7 1.1 12.4
v -6.8 1.1 11.5
v -6.7 1.1 11.5
v -6.8 1.1 11.4
v -6.7 1.1 11.4
v -6.7 1.1 11.3
v -6.6 1.1 11.3
v -6.7 1.1 11.2
v -6.6 1.1 11.2
v -6.7 1.1 11.1
v -6.6 1.1 11.1
v -6.7 1.1 11
v -6.6 1.1 11
v -6.8 1.1 10.9
v -6.7 1.1 10.9
v -6.8 1.1 10.8
v -6.7 1.1 10.8
v -6.8 1.1 9.9
v -6.7 1.1 9.9
v -6.8 1.1 9.8
v -6.7 1.1 9.8
v -6.7 1.1 9.7
v -6.6 1.1 9.7
v -6.7 1.1 9.6
v -6.6 1.1 9.6
v -6.7 1.2 12.6
v -6.6 1.2 12.6
v -6.7 1.2 11.3
v -6.6 1.2 11.3
v -6.7 1.2 11
v -6.6 1.2 11
v -6.7 1.2 9.7
v -6.6 1.2 9.7
v -0.6 3.3 11.6
v -0.1 3.3 11.6
v -0.4 3.3 11.4
v -0.3 3.3 11.4
v -0.2 3.3 11.4
v -0.1 3.3 11.4
v -0.6 3.3 11.3
v -0.4 3.3 11.3
v -0.3 3.3 11.3
v -0.2 3.3 11.3
v -0.1 3.3 11.3
v -0.4 3.3 11.2
v -0.3 3.3 11.2
v -0.4 3.3 11.1
v -0.3 3.3 11.1
v -0.2 3.4 11.2
v -0.1 3.4 11.2
v 0 3.4 11.2
v -0.3 3.4 11.1
v -0.2 3.4 11.1
v -0.3 3.4 10.9
v 0 3.4 10.9
v -0.5 3.9 11.4
v -0.3 3.9 11.4
v -0.4 3.9 11.3
v -0.3 3.9 11.3
v -0.4 3.9 11.2
v -0.3 3.9 11.2
v -0.5 3.9 11.1
v -0.3 3.9 11.1
v -0.2 5.2 11.3
v -0.1 5.2 11.3
v -0.2 5.2 11.2
v -0.1 5.2 11.2
v -0.3 5.8 11.4
v -0.2 5.8 11.4
v -0.3 5.8 11.1
v -0.2 5.8 11.1
v -3 5.9 11.4
v -0.3 5.9 11.4
v -3 5.9 11.1
v -0.3 5.9 11.1

# faces
f 3/1/1 2/1/1 1/1/1
f 4/1/1 2/1/1 3/1/1
f 5/4/1 4/4/1 3/4/1
f 6/4/1 4/4/1 5/4/1
f 15/2/1 8/2/1 7/2/1
f 16/2/1 8/2/1 15/2/1
f 17/2/1 10/2/1 9/2/1
f 18/2/1 10/2/1 17/2/1
f 19/2/1 12/2/1 11/2/1
f 20/2/1 12/2/1 19/2/1
f 21/2/1 14/2/1 13/2/1
f 22/2/1 14/2/1 21/2/1
f 36/2/1 24/2/1 23/2/1
f 37/2/1 24/2/1 36/2/1
f 38/2/1 26/2/1 25/2/1
f 39/2/1 26/2/1 38/2/1
f 40/2/1 28/2/1 27/2/1
f 41/2/1 28/2/1 40/2/1
f 44/2/1 30/2/1 29/2/1
f 45/2/1 30/2/1 44/2/1
f 46/2/1 32/2/1 31/2/1
f 47/2/1 32/2/1 46/2/1
f 48/2/1 34/2/1 33/2/1
f 49/2/1 34/2/1 48/2/1
f 51/2/1 36/2/1 35/2/1
f 52/2/1 36/2/1 51/2/1
f 57/2/1 42/2/1 41/2/1
f 58/2/1 42/2/1 57/2/1
f 59/2/1 44/2/1 43/2/1
f 60/2/1 44/2/1 59/2/1
f 65/2/1 50/2/1 49/2/1
f 66/2/1 50/2/1 65/2/1
f 67/2/1 56/2/1 55/2/1
f 67/2/1 53/2/1 52/2/1
f 67/2/1 54/2/1 53/2/1
f 67/2/1 55/2/1 54/2/1
f 67/2/1 57/2/1 56/2/1
f 68/2/1 57/2/1 67/2/1
f 69/2/1 64/2/1 63/2/1
f 69/2/1 65/2/1 64/2/1
f 69/2/1 63/2/1 62/2/1
f 69/2/1 62/2/1 61/2/1
f 69/2/1 61/2/1 60/2/1
f 70/2/1 65/2/1 69/2/1
f 75/3/1 72/3/1 71/3/1
f 76/3/1 74/3/1 73/3/1
f 77/3/1 75/3/1 71/3/1
f 77/3/1 76/3/1 75/3/1
f 78/3/1 74/3/1 76/3/1
f 78/3/1 76/3/1 77/3/1
f 81/10/1 80/10/1 79/10/1
f 82/10/1 80/10/1 81/10/1
f 85/9/1 84/9/1 83/9/1
f 86/9/1 84/9/1 85/9/1
f 89/5/1 88/5/1 87/5/1
f 90/5/1 88/5/1 89/5/1
f 93/3/1 92/3/1 91/3/1
f 94/3/1 92/3/1 93/3/1
f 95/3/1 92/3/1 94/3/1
f 96/3/1 92/3/1 95/3/1
f 97/3/1 92/3/1 96/3/1
f 98/3/1 96/3/1 95/3/1
f 99/3/1 96/3/1 98/3/1
f 102/3/1 101/3/1 100/3/1
f 103/3/1 101/3/1 102/3/1
f 104/3/1 103/3/1 102/3/1
f 105/3/1 103/3/1 104/3/1
f 111/9/1 107/9/1 106/9/1
f 112/9/1 107/9/1 111/9/1
f 112/3/1 111/3/1 110/3/1
f 113/9/1 107/9/1 112/9/1
f 114/3/1 109/3/1 108/3/1
f 115/3/1 109/3/1 114/3/1
f 116/3/1 112/3/1 110/3/1
f 117/3/1 112/3/1 116/3/1
f 122/3/1 119/3/1 118/3/1
f 123/3/1 119/3/1 122/3/1
f 124/3/1 121/3/1 120/3/1
f 125/3/1 121/3/1 124/3/1
f 128/7/1 127/7/1 126/7/1
f 129/7/1 127/7/1 128/7/1
f 132/7/1 131/7/1 130/7/1
f 133/7/1 131/7/1 132/7/1
f 134/2/2 135/2/2 142/2/2
f 142/2/2 135/2/2 143/2/2
f 136/2/2 137/2/2 144/2/2
f 144/2/2 137/2/2 145/2/2
f 138/2/2 139/2/2 146/2/2
f 146/2/2 139/2/2 147/2/2
f 140/2/2 141/2/2 148/2/2
f 148/2/2 141/2/2 149/2/2
f 150/2/2 151/2/2 158/2/2
f 158/2/2 151/2/2 159/2/2
f 152/2/2 153/2/2 160/2/2
f 160/2/2 153/2/2 161/2/2
f 154/2/2 155/2/2 162/2/2
f 162/2/2 155/2/2 163/2/2
f 156/2/2 157/2/2 164/2/2
f 164/2/2 157/2/2 165/2/2
f 166/2/2 167/2/2 171/2/2
f 171/2/2 167/2/2 172/2/2
f 168/2/2 169/2/2 175/2/2
f 175/2/2 169/2/2 176/2/2
f 170/2/2 171/2/2 178/2/2
f 178/2/2 171/2/2 179/2/2
f 172/2/2 173/2/2 180/2/2
f 180/2/2 173/2/2 181/2/2
f 174/2/2 175/2/2 182/2/2
f 182/2/2 175/2/2 183/2/2
f 176/2/2 177/2/2 184/2/2
f 184/2/2 177/2/2 185/2/2
f 179/2/2 180/2/2 186/2/2
f 186/2/2 180/2/2 187/2/2
f 183/2/2 184/2/2 188/2/2
f 188/2/2 184/2/2 189/2/2
f 190/10/2 191/10/2 192/10/2
f 192/10/2 191/10/2 193/10/2
f 194/3/2 195/3/2 196/3/2
f 196/3/2 195/3/2 197/3/2
f 198/3/2 199/3/2 202/3/2
f 200/3/2 201/3/2 203/3/2
f 198/3/2 202/3/2 204/3/2
f 202/3/2 203/3/2 204/3/2
f 203/3/2 201/3/2 205/3/2
f 204/3/2 203/3/2 205/3/2
f 206/3/2 207/3/2 208/3/2
f 208/3/2 207/3/2 209/3/2
f 206/3/2 208/3/2 211/3/2
f 210/9/2 211/9/2 212/9/2
f 211/3/2 208/3/2 213/3/2
f 212/9/2 211/9/2 213/9/2
f 213/3/2 208/3/2 214/3/2
f 214/3/2 208/3/2 215/3/2
f 214/3/2 215/3/2 216/3/2
f 216/3/2 215/3/2 217/3/2
f 218/9/2 219/9/2 220/9/2
f 220/9/2 219/9/2 221/9/2
f 222/7/2 223/7/2 224/7/2
f 224/7/2 223/7/2 225/7/2
f 226/1/2 227/1/2 228/1/2
f 228/1/2 227/1/2 229/1/2
f 228/10/2 229/10/2 230/10/2
f 230/10/2 229/10/2 231/10/2
f 230/7/2 231/7/2 232/7/2
f 232/7/2 231/7/2 233/7/2
f 239/1/3 235/1/3 234/1/3
f 239/4/3 236/4/3 235/4/3
f 240/4/3 236/4/3 239/4/3
f 241/2/3 238/2/3 237/2/3
f 242/2/3 238/2/3 241/2/3
f 243/1/3 239/1/3 234/1/3
f 244/10/3 240/10/3 239/10/3
f 244/1/3 239/1/3 243/1/3
f 245/10/3 240/10/3 244/10/3
f 246/6/3 244/6/3 243/6/3
f 247/6/3 244/6/3 246/6/3
f 248/1/3 247/1/3 246/1/3
f 249/1/3 247/1/3 248/1/3
f 250/6/3 249/6/3 248/6/3
f 251/6/3 249/6/3 250/6/3
f 253/10/3 252/10/3 251/10/3
f 255/10/3 253/10/3 251/10/3
f 255/7/3 254/7/3 253/7/3
f 256/7/3 254/7/3 255/7/3
f 257/10/3 255/10/3 251/10/3
f 259/1/3 251/1/3 250/1/3
f 260/10/3 257/10/3 251/10/3
f 260/1/3 251/1/3 259/1/3
f 261/7/3 258/7/3 257/7/3
f 261/10/3 257/10/3 260/10/3
f 262/7/3 258/7/3 261/7/3
f 267/2/3 264/2/3 263/2/3
f 268/2/3 264/2/3 267/2/3
f 269/2/3 266/2/3 265/2/3
f 270/2/3 266/2/3 269/2/3
f 273/2/3 272/2/3 271/2/3
f 274/2/3 272/2/3 273/2/3
f 275/2/3 272/2/3 274/2/3
f 276/2/3 272/2/3 275/2/3
f 279/9/3 278/9/3 277/9/3
f 280/9/3 278/9/3 279/9/3
f 283/2/3 282/2/3 281/2/3
f 284/2/3 282/2/3 283/2/3
f 285/2/3 282/2/3 284/2/3
f 286/2/3 282/2/3 285/2/3
f 294/5/3 290/5/3 289/5/3
f 295/5/3 290/5/3 294/5/3
f 296/3/3 288/3/3 287/3/3
f 297/3/3 288/3/3 296/3/3
f 298/3/3 288/3/3 297/3/3
f 299/3/3 295/3/3 294/3/3
f 299/3/3 294/3/3 293/3/3
f 299/3/3 297/3/3 296/3/3
f 299/3/3 296/3/3 295/3/3
f 300/3/3 297/3/3 299/3/3
f 301/3/3 292/3/3 291/3/3
f 302/3/3 292/3/3 301/3/3
f 305/2/3 304/2/3 303/2/3
f 306/2/3 304/2/3 305/2/3
f 311/3/3 308/3/3 307/3/3
f 312/3/3 308/3/3 311/3/3
f 313/3/3 310/3/3 309/3/3
f 314/3/3 310/3/3 313/3/3
f 317/3/3 316/3/3 315/3/3
f 318/3/3 316/3/3 317/3/3
f 321/3/3 320/3/3 319/3/3
f 322/3/3 321/3/3 319/3/3
f 323/3/3 321/3/3 322/3/3
f 326/9/3 325/9/3 324/9/3
f 327/9/3 325/9/3 326/9/3
f 330/2/3 329/2/3 328/2/3
f 331/2/3 329/2/3 330/2/3
f 336/2/3 333/2/3 332/2/3
f 337/2/3 333/2/3 336/2/3
f 338/2/3 335/2/3 334/2/3
f 339/2/3 335/2/3 338/2/3
f 342/2/3 341/2/3 340/2/3
f 343/2/3 341/2/3 342/2/3
f 344/2/3 341/2/3 343/2/3
f 345/2/3 341/2/3 344/2/3
f 348/2/3 347/2/3 346/2/3
f 349/2/3 347/2/3 348/2/3
f 350/2/3 347/2/3 349/2/3
f 351/2/3 347/2/3 350/2/3
f 354/2/3 353/2/3 352/2/3
f 355/2/3 353/2/3 354/2/3
f 356/2/4 357/2/4 358/2/4
f 358/2/4 357/2/4 359/2/4
f 360/2/4 361/2/4 362/2/4
f 362/2/4 361/2/4 363/2/4
f 363/2/4 361/2/4 364/2/4
f 364/2/4 361/2/4 365/2/4
f 366/2/4 367/2/4 368/2/4
f 368/2/4 367/2/4 369/2/4
f 369/2/4 367/2/4 370/2/4
f 370/2/4 367/2/4 371/2/4
f 372/2/4 373/2/4 376/2/4
f 376/2/4 373/2/4 377/2/4
f 374/2/4 375/2/4 378/2/4
f 378/2/4 375/2/4 379/2/4
f 380/3/4 381/3/4 382/3/4
f 383/9/4 384/9/4 385/9/4
f 385/9/4 384/9/4 386/9/4
f 380/3/4 382/3/4 387/3/4
f 387/3/4 382/3/4 388/3/4
f 389/2/4 390/2/4 391/2/4
f 391/2/4 390/2/4 392/2/4
f 393/3/4 394/3/4 397/3/4
f 397/3/4 394/3/4 398/3/4
f 395/3/4 396/3/4 399/3/4
f 399/3/4 396/3/4 400/3/4
f 401/3/4 402/3/4 403/3/4
f 403/3/4 402/3/4 404/3/4
f 409/3/4 410/3/4 411/3/4
f 411/3/4 410/3/4 412/3/4
f 407/5/4 408/5/4 414/5/4
f 414/5/4 408/5/4 415/5/4
f 405/3/4 406/3/4 416/3/4
f 416/3/4 406/3/4 417/3/4
f 417/3/4 406/3/4 418/3/4
f 414/3/4 415/3/4 419/3/4
f 416/3/4 417/3/4 419/3/4
f 415/3/4 416/3/4 419/3/4
f 413/3/4 414/3/4 419/3/4
f 419/3/4 417/3/4 420/3/4
f 409/3/4 411/3/4 421/3/4
f 421/3/4 411/3/4 422/3/4
f 423/2/4 424/2/4 425/2/4
f 425/2/4 424/2/4 426/2/4
f 427/9/4 428/9/4 429/9/4
f 429/9/4 428/9/4 430/9/4
f 431/2/4 432/2/4 433/2/4
f 433/2/4 432/2/4 434/2/4
f 434/2/4 432/2/4 435/2/4
f 435/2/4 432/2/4 436/2/4
f 437/2/4 438/2/4 439/2/4
f 439/2/4 438/2/4 440/2/4
f 440/2/4 438/2/4 441/2/4
f 441/2/4 438/2/4 442/2/4
f 443/2/4 444/2/4 447/2/4
f 447/2/4 444/2/4 448/2/4
f 445/2/4 446/2/4 449/2/4
f 449/2/4 446/2/4 450/2/4
f 451/1/4 452/1/4 456/1/4
f 452/4/4 453/4/4 456/4/4
f 456/4/4 453/4/4 457/4/4
f 454/2/4 455/2/4 458/2/4
f 458/2/4 455/2/4 459/2/4
f 451/1/4 456/1/4 460/1/4
f 456/10/4 457/10/4 461/10/4
f 460/1/4 456/1/4 461/1/4
f 461/10/4 457/10/4 462/10/4
f 460/6/4 461/6/4 463/6/4
f 463/6/4 461/6/4 464/6/4
f 463/1/4 464/1/4 465/1/4
f 465/1/4 464/1/4 466/1/4
f 465/6/4 466/6/4 467/6/4
f 467/6/4 466/6/4 468/6/4
f 468/10/4 469/10/4 470/10/4
f 468/10/4 470/10/4 472/10/4
f 470/7/4 471/7/4 472/7/4
f 472/7/4 471/7/4 473/7/4
f 468/10/4 472/10/4 474/10/4
f 467/1/4 468/1/4 476/1/4
f 468/10/4 474/10/4 477/10/4
f 476/1/4 468/1/4 477/1/4
f 474/7/4 475/7/4 478/7/4
f 477/10/4 474/10/4 478/10/4
f 478/7/4 475/7/4 479/7/4
f 486/1/5 481/1/5 480/1/5
f 487/6/5 482/6/5 481/6/5
f 487/1/5 481/1/5 486/1/5
f 488/1/5 483/1/5 482/1/5
f 488/6/5 482/6/5 487/6/5
f 489/6/5 484/6/5 483/6/5
f 489/1/5 483/1/5 488/1/5
f 490/1/5 485/1/5 484/1/5
f 490/6/5 484/6/5 489/6/5
f 491/1/5 485/1/5 490/1/5
f 494/2/5 493/2/5 492/2/5
f 495/2/5 493/2/5 494/2/5
f 498/2/5 497/2/5 496/2/5
f 499/2/5 497/2/5 498/2/5
f 502/2/5 501/2/5 500/2/5
f 503/2/5 501/2/5 502/2/5
f 506/2/5 505/2/5 504/2/5
f 507/2/5 505/2/5 506/2/5
f 510/2/5 509/2/5 508/2/5
f 511/2/5 509/2/5 510/2/5
f 512/2/5 509/2/5 511/2/5
f 513/2/5 509/2/5 512/2/5
f 514/2/5 509/2/5 513/2/5
f 515/2/5 509/2/5 514/2/5
f 518/2/5 517/2/5 516/2/5
f 519/2/5 517/2/5 518/2/5
f 520/2/5 517/2/5 519/2/5
f 521/2/5 517/2/5 520/2/5
f 522/2/5 517/2/5 521/2/5
f 523/2/5 517/2/5 522/2/5
f 526/2/5 525/2/5 524/2/5
f 527/2/5 525/2/5 526/2/5
f 530/2/5 529/2/5 528/2/5
f 531/2/5 529/2/5 530/2/5
f 534/2/5 533/2/5 532/2/5
f 535/2/5 533/2/5 534/2/5
f 538/2/5 537/2/5 536/2/5
f 539/2/5 537/2/5 538/2/5
f 542/2/5 541/2/5 540/2/5
f 543/2/5 541/2/5 542/2/5
f 544/2/5 541/2/5 543/2/5
f 545/2/5 541/2/5 544/2/5
f 546/2/5 541/2/5 545/2/5
f 547/2/5 541/2/5 546/2/5
f 550/2/5 549/2/5 548/2/5
f 551/2/5 549/2/5 550/2/5
f 552/2/5 549/2/5 551/2/5
f 553/2/5 549/2/5 552/2/5
f 554/2/5 549/2/5 553/2/5
f 555/2/5 549/2/5 554/2/5
f 559/9/5 557/9/5 556/9/5
f 560/9/5 559/9/5 558/9/5
f 561/9/5 557/9/5 559/9/5
f 561/9/5 559/9/5 560/9/5
f 564/9/5 563/9/5 562/9/5
f 565/9/5 563/9/5 564/9/5
f 566/9/5 564/9/5 562/9/5
f 567/9/5 564/9/5 566/9/5
f 570/5/5 569/5/5 568/5/5
f 571/5/5 569/5/5 570/5/5
f 572/5/5 570/5/5 568/5/5
f 574/5/5 572/5/5 568/5/5
f 574/5/5 573/5/5 572/5/5
f 575/5/5 573/5/5 574/5/5
f 578/3/5 577/3/5 576/3/5
f 579/3/5 577/3/5 578/3/5
f 580/3/5 577/3/5 579/3/5
f 584/3/5 582/3/5 581/3/5
f 584/3/5 583/3/5 582/3/5
f 585/3/5 583/3/5 584/3/5
f 589/3/5 587/3/5 586/3/5
f 590/8/5 588/8/5 587/8/5
f 590/3/5 587/3/5 589/3/5
f 591/8/5 588/8/5 590/8/5
f 592/6/6 593/6/6 596/6/6
f 593/1/6 594/1/6 597/1/6
f 596/6/6 593/6/6 597/6/6
f 594/6/6 595/6/6 598/6/6
f 597/1/6 594/1/6 598/1/6
f 598/6/6 595/6/6 599/6/6
f 603/10/6 604/10/6 607/10/6
f 607/10/6 604/10/6 608/10/6
f 603/10/6 607/10/6 609/10/6
f 608/10/6 604/10/6 610/10/6
f 600/4/6 601/4/6 611/4/6
f 601/10/6 602/10/6 612/10/6
f 611/4/6 601/4/6 612/4/6
f 612/10/6 602/10/6 613/10/6
f 609/10/6 610/10/6 614/10/6
f 603/10/6 609/10/6 614/10/6
f 610/10/6 604/10/6 615/10/6
f 614/10/6 610/10/6 615/10/6
f 605/10/6 606/10/6 616/10/6
f 616/10/6 606/10/6 617/10/6
f 618/7/6 619/7/6 622/7/6
f 622/7/6 619/7/6 623/7/6
f 620/7/6 621/7/6 624/7/6
f 624/7/6 621/7/6 625/7/6
f 626/2/6 627/2/6 628/2/6
f 628/2/6 627/2/6 629/2/6
f 629/2/6 627/2/6 630/2/6
f 630/2/6 627/2/6 631/2/6
f 631/2/6 627/2/6 632/2/6
f 632/2/6 627/2/6 633/2/6
f 634/2/6 635/2/6 636/2/6
f 636/2/6 635/2/6 637/2/6
f 637/2/6 635/2/6 638/2/6
f 638/2/6 635/2/6 639/2/6
f 639/2/6 635/2/6 640/2/6
f 640/2/6 635/2/6 641/2/6
f 642/2/6 643/2/6 644/2/6
f 644/2/6 643/2/6 645/2/6
f 646/2/6 647/2/6 648/2/6
f 648/2/6 647/2/6 649/2/6
f 650/2/6 651/2/6 652/2/6
f 652/2/6 651/2/6 653/2/6
f 654/2/6 655/2/6 656/2/6
f 656/2/6 655/2/6 657/2/6
f 658/2/6 659/2/6 660/2/6
f 660/2/6 659/2/6 661/2/6
f 662/2/6 663/2/6 664/2/6
f 664/2/6 663/2/6 665/2/6
f 666/2/6 667/2/6 668/2/6
f 668/2/6 667/2/6 669/2/6
f 670/2/6 671/2/6 672/2/6
f 672/2/6 671/2/6 673/2/6
f 674/2/6 675/2/6 676/2/6
f 676/2/6 675/2/6 677/2/6
f 678/2/6 679/2/6 680/2/6
f 680/2/6 679/2/6 681/2/6
f 682/9/6 683/9/6 684/9/6
f 684/9/6 683/9/6 685/9/6
f 685/9/6 683/9/6 686/9/6
f 686/9/6 683/9/6 687/9/6
f 682/9/6 684/9/6 688/9/6
f 684/3/6 685/3/6 689/3/6
f 688/9/6 684/9/6 689/9/6
f 689/3/6 685/3/6 690/3/6
f 686/3/6 687/3/6 691/3/6
f 691/3/6 687/3/6 692/3/6
f 693/3/6 694/3/6 695/3/6
f 695/3/6 694/3/6 696/3/6
f 697/9/6 698/9/6 701/9/6
f 698/9/6 699/9/6 701/9/6
f 700/9/6 701/9/6 702/9/6
f 701/9/6 699/9/6 703/9/6
f 702/9/6 701/9/6 703/9/6
f 704/5/6 705/5/6 706/5/6
f 706/5/6 705/5/6 707/5/6
f 704/5/6 706/5/6 708/5/6
f 704/5/6 708/5/6 710/5/6
f 708/5/6 709/5/6 710/5/6
f 710/5/6 709/5/6 711/5/6
f 712/3/6 713/3/6 714/3/6
f 714/3/6 713/3/6 715/3/6
f 716/3/6 717/3/6 718/3/6
f 718/3/6 717/3/6 719/3/6
f 720/3/6 721/3/6 722/3/6
f 722/3/6 721/3/6 723/3/6
